<mxfile host="app.diagrams.net" agent="Mozilla/5.0 (X11; Linux x86_64; rv:136.0) Gecko/20100101 Firefox/136.0" version="26.1.1">
  <diagram name="Page-1" id="OwCOIzThx3f6TGoiBRJK">
    <mxGraphModel dx="4264" dy="2077" grid="1" gridSize="10" guides="1" tooltips="1" connect="1" arrows="1" fold="1" page="1" pageScale="1" pageWidth="850" pageHeight="1100" math="0" shadow="0">
      <root>
        <mxCell id="0" />
        <mxCell id="1" parent="0" />
        <mxCell id="jll_CH9f2McwU1DsK0mr-197" value="Area" style="rounded=0;whiteSpace=wrap;html=1;" vertex="1" parent="1">
          <mxGeometry x="-761" y="-280" width="200" height="60" as="geometry" />
        </mxCell>
        <mxCell id="jll_CH9f2McwU1DsK0mr-198" value="Empleado" style="rounded=0;whiteSpace=wrap;html=1;" vertex="1" parent="1">
          <mxGeometry x="-1240" y="-280" width="200" height="60" as="geometry" />
        </mxCell>
        <mxCell id="jll_CH9f2McwU1DsK0mr-200" value="Tipo_Proyecto" style="rounded=0;whiteSpace=wrap;html=1;" vertex="1" parent="1">
          <mxGeometry x="-1960" y="-0.25" width="200" height="60" as="geometry" />
        </mxCell>
        <mxCell id="jll_CH9f2McwU1DsK0mr-201" value="Cargo" style="rounded=0;whiteSpace=wrap;html=1;" vertex="1" parent="1">
          <mxGeometry x="-1600" width="200" height="60" as="geometry" />
        </mxCell>
        <mxCell id="jll_CH9f2McwU1DsK0mr-216" value="" style="group" vertex="1" connectable="0" parent="1">
          <mxGeometry x="-1564" y="-858.9984757729337" width="8" height="28" as="geometry" />
        </mxCell>
        <mxCell id="jll_CH9f2McwU1DsK0mr-217" value="" style="ellipse;whiteSpace=wrap;html=1;aspect=fixed;fillColor=light-dark(#FFFFFF,transparent);" vertex="1" parent="jll_CH9f2McwU1DsK0mr-216">
          <mxGeometry width="8" height="8" as="geometry" />
        </mxCell>
        <mxCell id="jll_CH9f2McwU1DsK0mr-218" style="edgeStyle=orthogonalEdgeStyle;rounded=0;orthogonalLoop=1;jettySize=auto;html=1;endArrow=none;startFill=0;" edge="1" parent="jll_CH9f2McwU1DsK0mr-216">
          <mxGeometry relative="1" as="geometry">
            <mxPoint x="4" y="28" as="targetPoint" />
            <mxPoint x="4" y="8" as="sourcePoint" />
          </mxGeometry>
        </mxCell>
        <mxCell id="jll_CH9f2McwU1DsK0mr-219" value="&lt;font style=&quot;font-size: 8px;&quot;&gt;matricula(0,1)&lt;/font&gt;" style="text;html=1;align=center;verticalAlign=middle;resizable=0;points=[];autosize=1;strokeColor=none;fillColor=none;rotation=-60;" vertex="1" parent="1">
          <mxGeometry x="-1590" y="-911.9984757729337" width="90" height="30" as="geometry" />
        </mxCell>
        <mxCell id="jll_CH9f2McwU1DsK0mr-220" value="" style="group" vertex="1" connectable="0" parent="1">
          <mxGeometry x="-1623" y="-858.7484757729337" width="8" height="28" as="geometry" />
        </mxCell>
        <mxCell id="jll_CH9f2McwU1DsK0mr-221" value="" style="ellipse;whiteSpace=wrap;html=1;aspect=fixed;fillColor=light-dark(#FFFFFF,#FFFFFF);" vertex="1" parent="jll_CH9f2McwU1DsK0mr-220">
          <mxGeometry width="8" height="8" as="geometry" />
        </mxCell>
        <mxCell id="jll_CH9f2McwU1DsK0mr-222" style="edgeStyle=orthogonalEdgeStyle;rounded=0;orthogonalLoop=1;jettySize=auto;html=1;endArrow=none;startFill=0;" edge="1" parent="jll_CH9f2McwU1DsK0mr-220">
          <mxGeometry relative="1" as="geometry">
            <mxPoint x="4" y="28" as="targetPoint" />
            <mxPoint x="4" y="8" as="sourcePoint" />
          </mxGeometry>
        </mxCell>
        <mxCell id="jll_CH9f2McwU1DsK0mr-223" value="&lt;font style=&quot;font-size: 8px;&quot;&gt;dni&lt;/font&gt;" style="text;html=1;align=center;verticalAlign=middle;resizable=0;points=[];autosize=1;strokeColor=none;fillColor=none;rotation=-60;" vertex="1" parent="1">
          <mxGeometry x="-1639" y="-886.9984757729337" width="40" height="30" as="geometry" />
        </mxCell>
        <mxCell id="jll_CH9f2McwU1DsK0mr-224" value="" style="group" vertex="1" connectable="0" parent="1">
          <mxGeometry x="-1603" y="-859.2884757729337" width="8" height="28" as="geometry" />
        </mxCell>
        <mxCell id="jll_CH9f2McwU1DsK0mr-225" value="" style="ellipse;whiteSpace=wrap;html=1;aspect=fixed;fillColor=light-dark(#FFFFFF,transparent);" vertex="1" parent="jll_CH9f2McwU1DsK0mr-224">
          <mxGeometry width="8" height="8" as="geometry" />
        </mxCell>
        <mxCell id="jll_CH9f2McwU1DsK0mr-226" style="edgeStyle=orthogonalEdgeStyle;rounded=0;orthogonalLoop=1;jettySize=auto;html=1;endArrow=none;startFill=0;" edge="1" parent="jll_CH9f2McwU1DsK0mr-224">
          <mxGeometry relative="1" as="geometry">
            <mxPoint x="4" y="28" as="targetPoint" />
            <mxPoint x="4" y="8" as="sourcePoint" />
          </mxGeometry>
        </mxCell>
        <mxCell id="jll_CH9f2McwU1DsK0mr-227" value="&lt;font style=&quot;font-size: 8px;&quot;&gt;nombre&lt;/font&gt;" style="text;html=1;align=center;verticalAlign=middle;resizable=0;points=[];autosize=1;strokeColor=none;fillColor=none;rotation=-60;" vertex="1" parent="1">
          <mxGeometry x="-1620" y="-893.9984757729337" width="50" height="30" as="geometry" />
        </mxCell>
        <mxCell id="jll_CH9f2McwU1DsK0mr-228" value="" style="group" vertex="1" connectable="0" parent="1">
          <mxGeometry x="-1583.5" y="-858.7484757729337" width="8" height="28" as="geometry" />
        </mxCell>
        <mxCell id="jll_CH9f2McwU1DsK0mr-229" value="" style="ellipse;whiteSpace=wrap;html=1;aspect=fixed;fillColor=light-dark(#FFFFFF,transparent);" vertex="1" parent="jll_CH9f2McwU1DsK0mr-228">
          <mxGeometry width="8" height="8" as="geometry" />
        </mxCell>
        <mxCell id="jll_CH9f2McwU1DsK0mr-230" style="edgeStyle=orthogonalEdgeStyle;rounded=0;orthogonalLoop=1;jettySize=auto;html=1;endArrow=none;startFill=0;" edge="1" parent="jll_CH9f2McwU1DsK0mr-228">
          <mxGeometry relative="1" as="geometry">
            <mxPoint x="4" y="28" as="targetPoint" />
            <mxPoint x="4" y="8" as="sourcePoint" />
          </mxGeometry>
        </mxCell>
        <mxCell id="jll_CH9f2McwU1DsK0mr-231" value="&lt;font style=&quot;font-size: 8px;&quot;&gt;apellido&lt;/font&gt;" style="text;html=1;align=center;verticalAlign=middle;resizable=0;points=[];autosize=1;strokeColor=none;fillColor=none;rotation=-60;" vertex="1" parent="1">
          <mxGeometry x="-1604" y="-898.9984757729337" width="60" height="30" as="geometry" />
        </mxCell>
        <mxCell id="jll_CH9f2McwU1DsK0mr-232" value="" style="group" vertex="1" connectable="0" parent="1">
          <mxGeometry x="-1544" y="-858.9984757729337" width="8" height="28" as="geometry" />
        </mxCell>
        <mxCell id="jll_CH9f2McwU1DsK0mr-233" value="" style="ellipse;whiteSpace=wrap;html=1;aspect=fixed;fillColor=light-dark(#FFFFFF,transparent);" vertex="1" parent="jll_CH9f2McwU1DsK0mr-232">
          <mxGeometry width="8" height="8" as="geometry" />
        </mxCell>
        <mxCell id="jll_CH9f2McwU1DsK0mr-234" style="edgeStyle=orthogonalEdgeStyle;rounded=0;orthogonalLoop=1;jettySize=auto;html=1;endArrow=none;startFill=0;" edge="1" parent="jll_CH9f2McwU1DsK0mr-232">
          <mxGeometry relative="1" as="geometry">
            <mxPoint x="4" y="28" as="targetPoint" />
            <mxPoint x="4" y="8" as="sourcePoint" />
          </mxGeometry>
        </mxCell>
        <mxCell id="jll_CH9f2McwU1DsK0mr-235" value="&lt;font style=&quot;font-size: 8px;&quot;&gt;fecha_nac&lt;/font&gt;" style="text;html=1;align=center;verticalAlign=middle;resizable=0;points=[];autosize=1;strokeColor=none;fillColor=none;rotation=-60;" vertex="1" parent="1">
          <mxGeometry x="-1568" y="-900.9984757729337" width="70" height="30" as="geometry" />
        </mxCell>
        <mxCell id="jll_CH9f2McwU1DsK0mr-236" value="" style="group" vertex="1" connectable="0" parent="1">
          <mxGeometry x="-1524" y="-858.7484757729337" width="8" height="28" as="geometry" />
        </mxCell>
        <mxCell id="jll_CH9f2McwU1DsK0mr-237" value="" style="ellipse;whiteSpace=wrap;html=1;aspect=fixed;fillColor=light-dark(#FFFFFF,transparent);" vertex="1" parent="jll_CH9f2McwU1DsK0mr-236">
          <mxGeometry width="8" height="8" as="geometry" />
        </mxCell>
        <mxCell id="jll_CH9f2McwU1DsK0mr-238" style="edgeStyle=orthogonalEdgeStyle;rounded=0;orthogonalLoop=1;jettySize=auto;html=1;endArrow=none;startFill=0;" edge="1" parent="jll_CH9f2McwU1DsK0mr-236">
          <mxGeometry relative="1" as="geometry">
            <mxPoint x="4" y="28" as="targetPoint" />
            <mxPoint x="4" y="8" as="sourcePoint" />
          </mxGeometry>
        </mxCell>
        <mxCell id="jll_CH9f2McwU1DsK0mr-239" value="" style="group" vertex="1" connectable="0" parent="1">
          <mxGeometry x="-1504" y="-858.7484757729337" width="8" height="28" as="geometry" />
        </mxCell>
        <mxCell id="jll_CH9f2McwU1DsK0mr-240" value="" style="ellipse;whiteSpace=wrap;html=1;aspect=fixed;fillColor=light-dark(#FFFFFF,transparent);" vertex="1" parent="jll_CH9f2McwU1DsK0mr-239">
          <mxGeometry width="8" height="8" as="geometry" />
        </mxCell>
        <mxCell id="jll_CH9f2McwU1DsK0mr-241" style="edgeStyle=orthogonalEdgeStyle;rounded=0;orthogonalLoop=1;jettySize=auto;html=1;endArrow=none;startFill=0;" edge="1" parent="jll_CH9f2McwU1DsK0mr-239">
          <mxGeometry relative="1" as="geometry">
            <mxPoint x="4" y="28" as="targetPoint" />
            <mxPoint x="4" y="8" as="sourcePoint" />
          </mxGeometry>
        </mxCell>
        <mxCell id="jll_CH9f2McwU1DsK0mr-242" value="&lt;font style=&quot;font-size: 8px;&quot;&gt;email&lt;/font&gt;" style="text;html=1;align=center;verticalAlign=middle;resizable=0;points=[];autosize=1;strokeColor=none;fillColor=none;rotation=-60;" vertex="1" parent="1">
          <mxGeometry x="-1542" y="-892.9984757729337" width="50" height="30" as="geometry" />
        </mxCell>
        <mxCell id="jll_CH9f2McwU1DsK0mr-287" value="" style="group" vertex="1" connectable="0" parent="1">
          <mxGeometry x="-684.5" y="-307.9984757729337" width="8" height="28" as="geometry" />
        </mxCell>
        <mxCell id="jll_CH9f2McwU1DsK0mr-288" value="" style="ellipse;whiteSpace=wrap;html=1;aspect=fixed;fillColor=light-dark(#FFFFFF,#FFFFFF);" vertex="1" parent="jll_CH9f2McwU1DsK0mr-287">
          <mxGeometry width="8" height="8" as="geometry" />
        </mxCell>
        <mxCell id="jll_CH9f2McwU1DsK0mr-289" style="edgeStyle=orthogonalEdgeStyle;rounded=0;orthogonalLoop=1;jettySize=auto;html=1;endArrow=none;startFill=0;" edge="1" parent="jll_CH9f2McwU1DsK0mr-287">
          <mxGeometry relative="1" as="geometry">
            <mxPoint x="4" y="28" as="targetPoint" />
            <mxPoint x="4" y="8" as="sourcePoint" />
          </mxGeometry>
        </mxCell>
        <mxCell id="jll_CH9f2McwU1DsK0mr-290" value="&lt;font style=&quot;font-size: 8px;&quot;&gt;nombre&lt;/font&gt;" style="text;html=1;align=center;verticalAlign=middle;resizable=0;points=[];autosize=1;strokeColor=none;fillColor=none;rotation=-60;" vertex="1" parent="1">
          <mxGeometry x="-702.5" y="-343.9984757729337" width="50" height="30" as="geometry" />
        </mxCell>
        <mxCell id="jll_CH9f2McwU1DsK0mr-291" value="" style="group" vertex="1" connectable="0" parent="1">
          <mxGeometry x="-664.5" y="-308.5384757729337" width="8" height="28" as="geometry" />
        </mxCell>
        <mxCell id="jll_CH9f2McwU1DsK0mr-292" value="" style="ellipse;whiteSpace=wrap;html=1;aspect=fixed;fillColor=light-dark(#FFFFFF,transparent);" vertex="1" parent="jll_CH9f2McwU1DsK0mr-291">
          <mxGeometry width="8" height="8" as="geometry" />
        </mxCell>
        <mxCell id="jll_CH9f2McwU1DsK0mr-293" style="edgeStyle=orthogonalEdgeStyle;rounded=0;orthogonalLoop=1;jettySize=auto;html=1;endArrow=none;startFill=0;" edge="1" parent="jll_CH9f2McwU1DsK0mr-291">
          <mxGeometry relative="1" as="geometry">
            <mxPoint x="4" y="28" as="targetPoint" />
            <mxPoint x="4" y="8" as="sourcePoint" />
          </mxGeometry>
        </mxCell>
        <mxCell id="jll_CH9f2McwU1DsK0mr-294" value="&lt;font style=&quot;font-size: 8px;&quot;&gt;codigo&lt;/font&gt;" style="text;html=1;align=center;verticalAlign=middle;resizable=0;points=[];autosize=1;strokeColor=none;fillColor=none;rotation=-60;" vertex="1" parent="1">
          <mxGeometry x="-682.5" y="-345.9984757729337" width="50" height="30" as="geometry" />
        </mxCell>
        <mxCell id="jll_CH9f2McwU1DsK0mr-295" value="" style="group" vertex="1" connectable="0" parent="1">
          <mxGeometry x="-645" y="-307.9984757729337" width="8" height="28" as="geometry" />
        </mxCell>
        <mxCell id="jll_CH9f2McwU1DsK0mr-296" value="" style="ellipse;whiteSpace=wrap;html=1;aspect=fixed;fillColor=light-dark(#FFFFFF,transparent);" vertex="1" parent="jll_CH9f2McwU1DsK0mr-295">
          <mxGeometry width="8" height="8" as="geometry" />
        </mxCell>
        <mxCell id="jll_CH9f2McwU1DsK0mr-297" style="edgeStyle=orthogonalEdgeStyle;rounded=0;orthogonalLoop=1;jettySize=auto;html=1;endArrow=none;startFill=0;" edge="1" parent="jll_CH9f2McwU1DsK0mr-295">
          <mxGeometry relative="1" as="geometry">
            <mxPoint x="4" y="28" as="targetPoint" />
            <mxPoint x="4" y="8" as="sourcePoint" />
          </mxGeometry>
        </mxCell>
        <mxCell id="jll_CH9f2McwU1DsK0mr-298" value="&lt;font style=&quot;font-size: 8px;&quot;&gt;descripcion&lt;/font&gt;" style="text;html=1;align=center;verticalAlign=middle;resizable=0;points=[];autosize=1;strokeColor=none;fillColor=none;rotation=-60;" vertex="1" parent="1">
          <mxGeometry x="-670.5" y="-355.9984757729337" width="80" height="30" as="geometry" />
        </mxCell>
        <mxCell id="jll_CH9f2McwU1DsK0mr-310" value="" style="group" vertex="1" connectable="0" parent="1">
          <mxGeometry x="-1155" y="-308.2484757729337" width="8" height="28" as="geometry" />
        </mxCell>
        <mxCell id="jll_CH9f2McwU1DsK0mr-311" value="" style="ellipse;whiteSpace=wrap;html=1;aspect=fixed;fillColor=light-dark(#FFFFFF,transparent);" vertex="1" parent="jll_CH9f2McwU1DsK0mr-310">
          <mxGeometry width="8" height="8" as="geometry" />
        </mxCell>
        <mxCell id="jll_CH9f2McwU1DsK0mr-312" style="edgeStyle=orthogonalEdgeStyle;rounded=0;orthogonalLoop=1;jettySize=auto;html=1;endArrow=none;startFill=0;" edge="1" parent="jll_CH9f2McwU1DsK0mr-310">
          <mxGeometry relative="1" as="geometry">
            <mxPoint x="4" y="28" as="targetPoint" />
            <mxPoint x="4" y="8" as="sourcePoint" />
          </mxGeometry>
        </mxCell>
        <mxCell id="jll_CH9f2McwU1DsK0mr-313" value="" style="group" vertex="1" connectable="0" parent="1">
          <mxGeometry x="-1214" y="-307.9984757729337" width="8" height="28" as="geometry" />
        </mxCell>
        <mxCell id="jll_CH9f2McwU1DsK0mr-314" value="" style="ellipse;whiteSpace=wrap;html=1;aspect=fixed;fillColor=light-dark(#FFFFFF,#FFFFFF);" vertex="1" parent="jll_CH9f2McwU1DsK0mr-313">
          <mxGeometry width="8" height="8" as="geometry" />
        </mxCell>
        <mxCell id="jll_CH9f2McwU1DsK0mr-315" style="edgeStyle=orthogonalEdgeStyle;rounded=0;orthogonalLoop=1;jettySize=auto;html=1;endArrow=none;startFill=0;" edge="1" parent="jll_CH9f2McwU1DsK0mr-313">
          <mxGeometry relative="1" as="geometry">
            <mxPoint x="4" y="28" as="targetPoint" />
            <mxPoint x="4" y="8" as="sourcePoint" />
          </mxGeometry>
        </mxCell>
        <mxCell id="jll_CH9f2McwU1DsK0mr-316" value="&lt;font style=&quot;font-size: 8px;&quot;&gt;dni&lt;/font&gt;" style="text;html=1;align=center;verticalAlign=middle;resizable=0;points=[];autosize=1;strokeColor=none;fillColor=none;rotation=-60;" vertex="1" parent="1">
          <mxGeometry x="-1230" y="-336.2484757729337" width="40" height="30" as="geometry" />
        </mxCell>
        <mxCell id="jll_CH9f2McwU1DsK0mr-317" value="" style="group" vertex="1" connectable="0" parent="1">
          <mxGeometry x="-1194" y="-308.5384757729337" width="8" height="28" as="geometry" />
        </mxCell>
        <mxCell id="jll_CH9f2McwU1DsK0mr-318" value="" style="ellipse;whiteSpace=wrap;html=1;aspect=fixed;fillColor=light-dark(#FFFFFF,#FFFFFF);" vertex="1" parent="jll_CH9f2McwU1DsK0mr-317">
          <mxGeometry width="8" height="8" as="geometry" />
        </mxCell>
        <mxCell id="jll_CH9f2McwU1DsK0mr-319" style="edgeStyle=orthogonalEdgeStyle;rounded=0;orthogonalLoop=1;jettySize=auto;html=1;endArrow=none;startFill=0;" edge="1" parent="jll_CH9f2McwU1DsK0mr-317">
          <mxGeometry relative="1" as="geometry">
            <mxPoint x="4" y="28" as="targetPoint" />
            <mxPoint x="4" y="8" as="sourcePoint" />
          </mxGeometry>
        </mxCell>
        <mxCell id="jll_CH9f2McwU1DsK0mr-320" value="&lt;font style=&quot;font-size: 8px;&quot;&gt;cuit&lt;/font&gt;" style="text;html=1;align=center;verticalAlign=middle;resizable=0;points=[];autosize=1;strokeColor=none;fillColor=none;rotation=-60;" vertex="1" parent="1">
          <mxGeometry x="-1209" y="-339.9984757729337" width="40" height="30" as="geometry" />
        </mxCell>
        <mxCell id="jll_CH9f2McwU1DsK0mr-321" value="" style="group" vertex="1" connectable="0" parent="1">
          <mxGeometry x="-1174.5" y="-307.9984757729337" width="8" height="28" as="geometry" />
        </mxCell>
        <mxCell id="jll_CH9f2McwU1DsK0mr-322" value="" style="ellipse;whiteSpace=wrap;html=1;aspect=fixed;fillColor=light-dark(#FFFFFF,transparent);" vertex="1" parent="jll_CH9f2McwU1DsK0mr-321">
          <mxGeometry width="8" height="8" as="geometry" />
        </mxCell>
        <mxCell id="jll_CH9f2McwU1DsK0mr-323" style="edgeStyle=orthogonalEdgeStyle;rounded=0;orthogonalLoop=1;jettySize=auto;html=1;endArrow=none;startFill=0;" edge="1" parent="jll_CH9f2McwU1DsK0mr-321">
          <mxGeometry relative="1" as="geometry">
            <mxPoint x="4" y="28" as="targetPoint" />
            <mxPoint x="4" y="8" as="sourcePoint" />
          </mxGeometry>
        </mxCell>
        <mxCell id="jll_CH9f2McwU1DsK0mr-324" value="&lt;font style=&quot;font-size: 8px;&quot;&gt;cant_hijos&lt;/font&gt;" style="text;html=1;align=center;verticalAlign=middle;resizable=0;points=[];autosize=1;strokeColor=none;fillColor=none;rotation=-60;" vertex="1" parent="1">
          <mxGeometry x="-1178" y="-352.9984757729337" width="70" height="30" as="geometry" />
        </mxCell>
        <mxCell id="jll_CH9f2McwU1DsK0mr-325" value="" style="group" vertex="1" connectable="0" parent="1">
          <mxGeometry x="-1135" y="-308.2484757729337" width="8" height="28" as="geometry" />
        </mxCell>
        <mxCell id="jll_CH9f2McwU1DsK0mr-326" value="" style="ellipse;whiteSpace=wrap;html=1;aspect=fixed;fillColor=light-dark(#FFFFFF,transparent);" vertex="1" parent="jll_CH9f2McwU1DsK0mr-325">
          <mxGeometry width="8" height="8" as="geometry" />
        </mxCell>
        <mxCell id="jll_CH9f2McwU1DsK0mr-327" style="edgeStyle=orthogonalEdgeStyle;rounded=0;orthogonalLoop=1;jettySize=auto;html=1;endArrow=none;startFill=0;" edge="1" parent="jll_CH9f2McwU1DsK0mr-325">
          <mxGeometry relative="1" as="geometry">
            <mxPoint x="4" y="28" as="targetPoint" />
            <mxPoint x="4" y="8" as="sourcePoint" />
          </mxGeometry>
        </mxCell>
        <mxCell id="jll_CH9f2McwU1DsK0mr-328" value="&lt;font style=&quot;font-size: 8px;&quot;&gt;fecha_nac&lt;/font&gt;" style="text;html=1;align=center;verticalAlign=middle;resizable=0;points=[];autosize=1;strokeColor=none;fillColor=none;rotation=-60;" vertex="1" parent="1">
          <mxGeometry x="-1199" y="-350.2484757729337" width="70" height="30" as="geometry" />
        </mxCell>
        <mxCell id="jll_CH9f2McwU1DsK0mr-329" value="" style="group" vertex="1" connectable="0" parent="1">
          <mxGeometry x="-1115" y="-307.9984757729337" width="8" height="28" as="geometry" />
        </mxCell>
        <mxCell id="jll_CH9f2McwU1DsK0mr-330" value="" style="ellipse;whiteSpace=wrap;html=1;aspect=fixed;fillColor=light-dark(#FFFFFF,transparent);" vertex="1" parent="jll_CH9f2McwU1DsK0mr-329">
          <mxGeometry width="8" height="8" as="geometry" />
        </mxCell>
        <mxCell id="jll_CH9f2McwU1DsK0mr-331" style="edgeStyle=orthogonalEdgeStyle;rounded=0;orthogonalLoop=1;jettySize=auto;html=1;endArrow=none;startFill=0;" edge="1" parent="jll_CH9f2McwU1DsK0mr-329">
          <mxGeometry relative="1" as="geometry">
            <mxPoint x="4" y="28" as="targetPoint" />
            <mxPoint x="4" y="8" as="sourcePoint" />
          </mxGeometry>
        </mxCell>
        <mxCell id="jll_CH9f2McwU1DsK0mr-332" value="" style="group" vertex="1" connectable="0" parent="1">
          <mxGeometry x="-1095" y="-307.9984757729337" width="8" height="28" as="geometry" />
        </mxCell>
        <mxCell id="jll_CH9f2McwU1DsK0mr-333" value="" style="ellipse;whiteSpace=wrap;html=1;aspect=fixed;fillColor=light-dark(#FFFFFF,transparent);" vertex="1" parent="jll_CH9f2McwU1DsK0mr-332">
          <mxGeometry width="8" height="8" as="geometry" />
        </mxCell>
        <mxCell id="jll_CH9f2McwU1DsK0mr-334" style="edgeStyle=orthogonalEdgeStyle;rounded=0;orthogonalLoop=1;jettySize=auto;html=1;endArrow=none;startFill=0;" edge="1" parent="jll_CH9f2McwU1DsK0mr-332">
          <mxGeometry relative="1" as="geometry">
            <mxPoint x="4" y="28" as="targetPoint" />
            <mxPoint x="4" y="8" as="sourcePoint" />
          </mxGeometry>
        </mxCell>
        <mxCell id="jll_CH9f2McwU1DsK0mr-335" value="&lt;font style=&quot;font-size: 8px;&quot;&gt;desc_titulos(0,1)&lt;/font&gt;" style="text;html=1;align=center;verticalAlign=middle;resizable=0;points=[];autosize=1;strokeColor=none;fillColor=none;rotation=-60;" vertex="1" parent="1">
          <mxGeometry x="-1150" y="-367.9984757729337" width="110" height="30" as="geometry" />
        </mxCell>
        <mxCell id="jll_CH9f2McwU1DsK0mr-336" value="&lt;font style=&quot;font-size: 8px;&quot;&gt;fecha_ingreso&lt;/font&gt;" style="text;html=1;align=center;verticalAlign=middle;resizable=0;points=[];autosize=1;strokeColor=none;fillColor=none;rotation=-60;" vertex="1" parent="1">
          <mxGeometry x="-1164" y="-359.9984757729337" width="90" height="30" as="geometry" />
        </mxCell>
        <mxCell id="jll_CH9f2McwU1DsK0mr-337" value="&lt;font style=&quot;font-size: 8px;&quot;&gt;telefonos(1,n)&lt;/font&gt;" style="text;html=1;align=center;verticalAlign=middle;resizable=0;points=[];autosize=1;strokeColor=none;fillColor=none;rotation=-60;" vertex="1" parent="1">
          <mxGeometry x="-1123" y="-361.9984757729337" width="90" height="30" as="geometry" />
        </mxCell>
        <mxCell id="jll_CH9f2McwU1DsK0mr-339" style="edgeStyle=orthogonalEdgeStyle;rounded=0;orthogonalLoop=1;jettySize=auto;html=1;entryX=1;entryY=0.5;entryDx=0;entryDy=0;endArrow=none;startFill=0;" edge="1" parent="1" source="jll_CH9f2McwU1DsK0mr-338" target="jll_CH9f2McwU1DsK0mr-198">
          <mxGeometry relative="1" as="geometry" />
        </mxCell>
        <mxCell id="jll_CH9f2McwU1DsK0mr-338" value="posee" style="rhombus;whiteSpace=wrap;html=1;" vertex="1" parent="1">
          <mxGeometry x="-927" y="-290.25" width="80" height="80" as="geometry" />
        </mxCell>
        <mxCell id="jll_CH9f2McwU1DsK0mr-340" style="edgeStyle=orthogonalEdgeStyle;rounded=0;orthogonalLoop=1;jettySize=auto;html=1;entryX=0;entryY=0.5;entryDx=0;entryDy=0;endArrow=none;startFill=0;" edge="1" parent="1" source="jll_CH9f2McwU1DsK0mr-338" target="jll_CH9f2McwU1DsK0mr-197">
          <mxGeometry relative="1" as="geometry">
            <mxPoint x="-498.5" y="-246" as="targetPoint" />
          </mxGeometry>
        </mxCell>
        <mxCell id="jll_CH9f2McwU1DsK0mr-342" value="(0,n)" style="text;html=1;align=center;verticalAlign=middle;resizable=0;points=[];autosize=1;strokeColor=none;fillColor=none;" vertex="1" parent="1">
          <mxGeometry x="-821" y="-280.54" width="60" height="30" as="geometry" />
        </mxCell>
        <mxCell id="jll_CH9f2McwU1DsK0mr-347" style="edgeStyle=orthogonalEdgeStyle;rounded=0;orthogonalLoop=1;jettySize=auto;html=1;entryX=0;entryY=0.5;entryDx=0;entryDy=0;endArrow=none;startFill=0;" edge="1" parent="1" source="jll_CH9f2McwU1DsK0mr-344" target="jll_CH9f2McwU1DsK0mr-346">
          <mxGeometry relative="1" as="geometry" />
        </mxCell>
        <mxCell id="jll_CH9f2McwU1DsK0mr-349" style="edgeStyle=orthogonalEdgeStyle;rounded=0;orthogonalLoop=1;jettySize=auto;html=1;entryX=0.5;entryY=1;entryDx=0;entryDy=0;" edge="1" parent="1" source="jll_CH9f2McwU1DsK0mr-344" target="jll_CH9f2McwU1DsK0mr-198">
          <mxGeometry relative="1" as="geometry" />
        </mxCell>
        <mxCell id="jll_CH9f2McwU1DsK0mr-344" value="Gerente" style="rounded=0;whiteSpace=wrap;html=1;" vertex="1" parent="1">
          <mxGeometry x="-1240" width="200" height="60" as="geometry" />
        </mxCell>
        <mxCell id="jll_CH9f2McwU1DsK0mr-348" style="edgeStyle=orthogonalEdgeStyle;rounded=0;orthogonalLoop=1;jettySize=auto;html=1;entryX=0.5;entryY=1;entryDx=0;entryDy=0;endArrow=none;startFill=0;" edge="1" parent="1" source="jll_CH9f2McwU1DsK0mr-346" target="jll_CH9f2McwU1DsK0mr-197">
          <mxGeometry relative="1" as="geometry" />
        </mxCell>
        <mxCell id="jll_CH9f2McwU1DsK0mr-346" value="cargo" style="rhombus;whiteSpace=wrap;html=1;" vertex="1" parent="1">
          <mxGeometry x="-927" y="-10.25" width="80" height="80" as="geometry" />
        </mxCell>
        <mxCell id="jll_CH9f2McwU1DsK0mr-350" value="(P,E)" style="text;html=1;align=center;verticalAlign=middle;resizable=0;points=[];autosize=1;strokeColor=none;fillColor=none;" vertex="1" parent="1">
          <mxGeometry x="-1145" y="-220" width="60" height="30" as="geometry" />
        </mxCell>
        <mxCell id="jll_CH9f2McwU1DsK0mr-354" value="" style="group" vertex="1" connectable="0" parent="1">
          <mxGeometry x="-919" y="-290.2484757729337" width="8" height="28" as="geometry" />
        </mxCell>
        <mxCell id="jll_CH9f2McwU1DsK0mr-355" value="" style="ellipse;whiteSpace=wrap;html=1;aspect=fixed;fillColor=light-dark(#FFFFFF,transparent);" vertex="1" parent="jll_CH9f2McwU1DsK0mr-354">
          <mxGeometry width="8" height="8" as="geometry" />
        </mxCell>
        <mxCell id="jll_CH9f2McwU1DsK0mr-356" style="edgeStyle=orthogonalEdgeStyle;rounded=0;orthogonalLoop=1;jettySize=auto;html=1;endArrow=none;startFill=0;" edge="1" parent="jll_CH9f2McwU1DsK0mr-354">
          <mxGeometry relative="1" as="geometry">
            <mxPoint x="4" y="28" as="targetPoint" />
            <mxPoint x="4" y="8" as="sourcePoint" />
          </mxGeometry>
        </mxCell>
        <mxCell id="jll_CH9f2McwU1DsK0mr-357" value="" style="group" vertex="1" connectable="0" parent="1">
          <mxGeometry x="-863" y="-290.2484757729337" width="8" height="28" as="geometry" />
        </mxCell>
        <mxCell id="jll_CH9f2McwU1DsK0mr-358" value="" style="ellipse;whiteSpace=wrap;html=1;aspect=fixed;fillColor=light-dark(#FFFFFF,transparent);" vertex="1" parent="jll_CH9f2McwU1DsK0mr-357">
          <mxGeometry width="8" height="8" as="geometry" />
        </mxCell>
        <mxCell id="jll_CH9f2McwU1DsK0mr-359" style="edgeStyle=orthogonalEdgeStyle;rounded=0;orthogonalLoop=1;jettySize=auto;html=1;endArrow=none;startFill=0;" edge="1" parent="jll_CH9f2McwU1DsK0mr-357">
          <mxGeometry relative="1" as="geometry">
            <mxPoint x="4" y="28" as="targetPoint" />
            <mxPoint x="4" y="8" as="sourcePoint" />
          </mxGeometry>
        </mxCell>
        <mxCell id="jll_CH9f2McwU1DsK0mr-360" value="&lt;font style=&quot;font-size: 8px;&quot;&gt;fecha_com&lt;/font&gt;" style="text;html=1;align=center;verticalAlign=middle;resizable=0;points=[];autosize=1;strokeColor=none;fillColor=none;rotation=-60;" vertex="1" parent="1">
          <mxGeometry x="-943" y="-330.2484757729337" width="70" height="30" as="geometry" />
        </mxCell>
        <mxCell id="jll_CH9f2McwU1DsK0mr-361" value="&lt;font style=&quot;font-size: 8px;&quot;&gt;fecha_fin(0,1)&lt;/font&gt;" style="text;html=1;align=center;verticalAlign=middle;resizable=0;points=[];autosize=1;strokeColor=none;fillColor=none;rotation=-60;" vertex="1" parent="1">
          <mxGeometry x="-892" y="-341.2484757729337" width="90" height="30" as="geometry" />
        </mxCell>
        <mxCell id="jll_CH9f2McwU1DsK0mr-362" value="" style="group" vertex="1" connectable="0" parent="1">
          <mxGeometry x="-919.5" y="-9.75" width="8" height="28" as="geometry" />
        </mxCell>
        <mxCell id="jll_CH9f2McwU1DsK0mr-363" value="" style="ellipse;whiteSpace=wrap;html=1;aspect=fixed;fillColor=light-dark(#FFFFFF,transparent);" vertex="1" parent="jll_CH9f2McwU1DsK0mr-362">
          <mxGeometry width="8" height="8" as="geometry" />
        </mxCell>
        <mxCell id="jll_CH9f2McwU1DsK0mr-364" style="edgeStyle=orthogonalEdgeStyle;rounded=0;orthogonalLoop=1;jettySize=auto;html=1;endArrow=none;startFill=0;" edge="1" parent="jll_CH9f2McwU1DsK0mr-362">
          <mxGeometry relative="1" as="geometry">
            <mxPoint x="4" y="28" as="targetPoint" />
            <mxPoint x="4" y="8" as="sourcePoint" />
          </mxGeometry>
        </mxCell>
        <mxCell id="jll_CH9f2McwU1DsK0mr-365" value="" style="group" vertex="1" connectable="0" parent="1">
          <mxGeometry x="-863.5" y="-10.75" width="8" height="28" as="geometry" />
        </mxCell>
        <mxCell id="jll_CH9f2McwU1DsK0mr-366" value="" style="ellipse;whiteSpace=wrap;html=1;aspect=fixed;fillColor=light-dark(#FFFFFF,transparent);" vertex="1" parent="jll_CH9f2McwU1DsK0mr-365">
          <mxGeometry width="8" height="8" as="geometry" />
        </mxCell>
        <mxCell id="jll_CH9f2McwU1DsK0mr-367" style="edgeStyle=orthogonalEdgeStyle;rounded=0;orthogonalLoop=1;jettySize=auto;html=1;endArrow=none;startFill=0;" edge="1" parent="jll_CH9f2McwU1DsK0mr-365">
          <mxGeometry relative="1" as="geometry">
            <mxPoint x="4" y="28" as="targetPoint" />
            <mxPoint x="4" y="8" as="sourcePoint" />
          </mxGeometry>
        </mxCell>
        <mxCell id="jll_CH9f2McwU1DsK0mr-368" value="&lt;font style=&quot;font-size: 8px;&quot;&gt;fecha_com&lt;/font&gt;" style="text;html=1;align=center;verticalAlign=middle;resizable=0;points=[];autosize=1;strokeColor=none;fillColor=none;rotation=-60;" vertex="1" parent="1">
          <mxGeometry x="-943.5" y="-50.248475772933716" width="70" height="30" as="geometry" />
        </mxCell>
        <mxCell id="jll_CH9f2McwU1DsK0mr-369" value="&lt;font style=&quot;font-size: 8px;&quot;&gt;fecha_fin(0,1)&lt;/font&gt;" style="text;html=1;align=center;verticalAlign=middle;resizable=0;points=[];autosize=1;strokeColor=none;fillColor=none;rotation=-60;" vertex="1" parent="1">
          <mxGeometry x="-891" y="-62.998475772933716" width="90" height="30" as="geometry" />
        </mxCell>
        <mxCell id="jll_CH9f2McwU1DsK0mr-416" style="edgeStyle=orthogonalEdgeStyle;rounded=0;orthogonalLoop=1;jettySize=auto;html=1;entryX=0.5;entryY=0;entryDx=0;entryDy=0;endArrow=none;startFill=0;" edge="1" parent="1" source="jll_CH9f2McwU1DsK0mr-370" target="jll_CH9f2McwU1DsK0mr-415">
          <mxGeometry relative="1" as="geometry" />
        </mxCell>
        <mxCell id="jll_CH9f2McwU1DsK0mr-370" value="Proyecto" style="rounded=0;whiteSpace=wrap;html=1;" vertex="1" parent="1">
          <mxGeometry x="-1960" y="-280" width="200" height="60" as="geometry" />
        </mxCell>
        <mxCell id="jll_CH9f2McwU1DsK0mr-371" value="(1,1)" style="text;html=1;align=center;verticalAlign=middle;resizable=0;points=[];autosize=1;strokeColor=none;fillColor=none;" vertex="1" parent="1">
          <mxGeometry x="-1040" y="-280.54" width="60" height="30" as="geometry" />
        </mxCell>
        <mxCell id="jll_CH9f2McwU1DsK0mr-372" value="(1,1)" style="text;html=1;align=center;verticalAlign=middle;resizable=0;points=[];autosize=1;strokeColor=none;fillColor=none;" vertex="1" parent="1">
          <mxGeometry x="-1040" y="-2.842170943040401e-14" width="60" height="30" as="geometry" />
        </mxCell>
        <mxCell id="jll_CH9f2McwU1DsK0mr-373" value="(1,1)" style="text;html=1;align=center;verticalAlign=middle;resizable=0;points=[];autosize=1;strokeColor=none;fillColor=none;" vertex="1" parent="1">
          <mxGeometry x="-724.5" y="-2.842170943040401e-14" width="60" height="30" as="geometry" />
        </mxCell>
        <mxCell id="jll_CH9f2McwU1DsK0mr-375" value="tiene" style="rhombus;whiteSpace=wrap;html=1;" vertex="1" parent="1">
          <mxGeometry x="-1360" y="-290" width="80" height="80" as="geometry" />
        </mxCell>
        <mxCell id="jll_CH9f2McwU1DsK0mr-378" value="" style="group" vertex="1" connectable="0" parent="1">
          <mxGeometry x="-1514" y="-306.9984757729337" width="8" height="28" as="geometry" />
        </mxCell>
        <mxCell id="jll_CH9f2McwU1DsK0mr-379" value="" style="ellipse;whiteSpace=wrap;html=1;aspect=fixed;fillColor=light-dark(#FFFFFF,transparent);" vertex="1" parent="jll_CH9f2McwU1DsK0mr-378">
          <mxGeometry width="8" height="8" as="geometry" />
        </mxCell>
        <mxCell id="jll_CH9f2McwU1DsK0mr-380" style="edgeStyle=orthogonalEdgeStyle;rounded=0;orthogonalLoop=1;jettySize=auto;html=1;endArrow=none;startFill=0;" edge="1" parent="jll_CH9f2McwU1DsK0mr-378">
          <mxGeometry relative="1" as="geometry">
            <mxPoint x="4" y="28" as="targetPoint" />
            <mxPoint x="4" y="8" as="sourcePoint" />
          </mxGeometry>
        </mxCell>
        <mxCell id="jll_CH9f2McwU1DsK0mr-381" value="" style="group" vertex="1" connectable="0" parent="1">
          <mxGeometry x="-1494" y="-306.9984757729337" width="8" height="28" as="geometry" />
        </mxCell>
        <mxCell id="jll_CH9f2McwU1DsK0mr-382" value="" style="ellipse;whiteSpace=wrap;html=1;aspect=fixed;fillColor=light-dark(#FFFFFF,transparent);" vertex="1" parent="jll_CH9f2McwU1DsK0mr-381">
          <mxGeometry width="8" height="8" as="geometry" />
        </mxCell>
        <mxCell id="jll_CH9f2McwU1DsK0mr-383" style="edgeStyle=orthogonalEdgeStyle;rounded=0;orthogonalLoop=1;jettySize=auto;html=1;endArrow=none;startFill=0;" edge="1" parent="jll_CH9f2McwU1DsK0mr-381">
          <mxGeometry relative="1" as="geometry">
            <mxPoint x="4" y="28" as="targetPoint" />
            <mxPoint x="4" y="8" as="sourcePoint" />
          </mxGeometry>
        </mxCell>
        <mxCell id="jll_CH9f2McwU1DsK0mr-384" value="&lt;font style=&quot;font-size: 8px;&quot;&gt;fecha_com&lt;/font&gt;" style="text;html=1;align=center;verticalAlign=middle;resizable=0;points=[];autosize=1;strokeColor=none;fillColor=none;rotation=-60;" vertex="1" parent="1">
          <mxGeometry x="-1538" y="-345.9984757729337" width="70" height="30" as="geometry" />
        </mxCell>
        <mxCell id="jll_CH9f2McwU1DsK0mr-385" value="&lt;font style=&quot;font-size: 8px;&quot;&gt;fecha_fin(0,1)&lt;/font&gt;" style="text;html=1;align=center;verticalAlign=middle;resizable=0;points=[];autosize=1;strokeColor=none;fillColor=none;rotation=-60;" vertex="1" parent="1">
          <mxGeometry x="-1521" y="-356.9984757729337" width="90" height="30" as="geometry" />
        </mxCell>
        <mxCell id="jll_CH9f2McwU1DsK0mr-386" value="(0,n)" style="text;html=1;align=center;verticalAlign=middle;resizable=0;points=[];autosize=1;strokeColor=none;fillColor=none;" vertex="1" parent="1">
          <mxGeometry x="-1769" y="-287.04" width="60" height="30" as="geometry" />
        </mxCell>
        <mxCell id="jll_CH9f2McwU1DsK0mr-387" value="" style="group" vertex="1" connectable="0" parent="1">
          <mxGeometry x="-1855" y="-309.53847577293374" width="8" height="28" as="geometry" />
        </mxCell>
        <mxCell id="jll_CH9f2McwU1DsK0mr-388" value="" style="ellipse;whiteSpace=wrap;html=1;aspect=fixed;fillColor=light-dark(#FFFFFF,transparent);" vertex="1" parent="jll_CH9f2McwU1DsK0mr-387">
          <mxGeometry width="8" height="8" as="geometry" />
        </mxCell>
        <mxCell id="jll_CH9f2McwU1DsK0mr-389" style="edgeStyle=orthogonalEdgeStyle;rounded=0;orthogonalLoop=1;jettySize=auto;html=1;endArrow=none;startFill=0;" edge="1" parent="jll_CH9f2McwU1DsK0mr-387">
          <mxGeometry relative="1" as="geometry">
            <mxPoint x="4" y="28" as="targetPoint" />
            <mxPoint x="4" y="8" as="sourcePoint" />
          </mxGeometry>
        </mxCell>
        <mxCell id="jll_CH9f2McwU1DsK0mr-390" value="" style="group" vertex="1" connectable="0" parent="1">
          <mxGeometry x="-1895" y="-309.28847577293374" width="8" height="28" as="geometry" />
        </mxCell>
        <mxCell id="jll_CH9f2McwU1DsK0mr-391" value="" style="ellipse;whiteSpace=wrap;html=1;aspect=fixed;fillColor=light-dark(#FFFFFF,#FFFFFF);" vertex="1" parent="jll_CH9f2McwU1DsK0mr-390">
          <mxGeometry width="8" height="8" as="geometry" />
        </mxCell>
        <mxCell id="jll_CH9f2McwU1DsK0mr-392" style="edgeStyle=orthogonalEdgeStyle;rounded=0;orthogonalLoop=1;jettySize=auto;html=1;endArrow=none;startFill=0;" edge="1" parent="jll_CH9f2McwU1DsK0mr-390">
          <mxGeometry relative="1" as="geometry">
            <mxPoint x="4" y="28" as="targetPoint" />
            <mxPoint x="4" y="8" as="sourcePoint" />
          </mxGeometry>
        </mxCell>
        <mxCell id="jll_CH9f2McwU1DsK0mr-393" value="&lt;font style=&quot;font-size: 8px;&quot;&gt;nombre&lt;/font&gt;" style="text;html=1;align=center;verticalAlign=middle;resizable=0;points=[];autosize=1;strokeColor=none;fillColor=none;rotation=-60;" vertex="1" parent="1">
          <mxGeometry x="-1912" y="-343.9984757729337" width="50" height="30" as="geometry" />
        </mxCell>
        <mxCell id="jll_CH9f2McwU1DsK0mr-398" value="" style="group" vertex="1" connectable="0" parent="1">
          <mxGeometry x="-1874.5" y="-309.28847577293374" width="8" height="28" as="geometry" />
        </mxCell>
        <mxCell id="jll_CH9f2McwU1DsK0mr-399" value="" style="ellipse;whiteSpace=wrap;html=1;aspect=fixed;fillColor=light-dark(#FFFFFF,transparent);" vertex="1" parent="jll_CH9f2McwU1DsK0mr-398">
          <mxGeometry width="8" height="8" as="geometry" />
        </mxCell>
        <mxCell id="jll_CH9f2McwU1DsK0mr-400" style="edgeStyle=orthogonalEdgeStyle;rounded=0;orthogonalLoop=1;jettySize=auto;html=1;endArrow=none;startFill=0;" edge="1" parent="jll_CH9f2McwU1DsK0mr-398">
          <mxGeometry relative="1" as="geometry">
            <mxPoint x="4" y="28" as="targetPoint" />
            <mxPoint x="4" y="8" as="sourcePoint" />
          </mxGeometry>
        </mxCell>
        <mxCell id="jll_CH9f2McwU1DsK0mr-401" value="&lt;font style=&quot;font-size: 8px;&quot;&gt;fecha_estim_fin&lt;/font&gt;" style="text;html=1;align=center;verticalAlign=middle;resizable=0;points=[];autosize=1;strokeColor=none;fillColor=none;rotation=-60;" vertex="1" parent="1">
          <mxGeometry x="-1887" y="-363.9984757729337" width="100" height="30" as="geometry" />
        </mxCell>
        <mxCell id="jll_CH9f2McwU1DsK0mr-402" value="" style="group" vertex="1" connectable="0" parent="1">
          <mxGeometry x="-1835" y="-309.53847577293374" width="8" height="28" as="geometry" />
        </mxCell>
        <mxCell id="jll_CH9f2McwU1DsK0mr-403" value="" style="ellipse;whiteSpace=wrap;html=1;aspect=fixed;fillColor=light-dark(#FFFFFF,transparent);" vertex="1" parent="jll_CH9f2McwU1DsK0mr-402">
          <mxGeometry width="8" height="8" as="geometry" />
        </mxCell>
        <mxCell id="jll_CH9f2McwU1DsK0mr-404" style="edgeStyle=orthogonalEdgeStyle;rounded=0;orthogonalLoop=1;jettySize=auto;html=1;endArrow=none;startFill=0;" edge="1" parent="jll_CH9f2McwU1DsK0mr-402">
          <mxGeometry relative="1" as="geometry">
            <mxPoint x="4" y="28" as="targetPoint" />
            <mxPoint x="4" y="8" as="sourcePoint" />
          </mxGeometry>
        </mxCell>
        <mxCell id="jll_CH9f2McwU1DsK0mr-405" value="&lt;font style=&quot;font-size: 8px;&quot;&gt;fecha_com&lt;/font&gt;" style="text;html=1;align=center;verticalAlign=middle;resizable=0;points=[];autosize=1;strokeColor=none;fillColor=none;rotation=-60;" vertex="1" parent="1">
          <mxGeometry x="-1899" y="-350.53847577293374" width="70" height="30" as="geometry" />
        </mxCell>
        <mxCell id="jll_CH9f2McwU1DsK0mr-413" value="&lt;font style=&quot;font-size: 8px;&quot;&gt;costo&lt;/font&gt;" style="text;html=1;align=center;verticalAlign=middle;resizable=0;points=[];autosize=1;strokeColor=none;fillColor=none;rotation=-60;" vertex="1" parent="1">
          <mxGeometry x="-1854" y="-343.9984757729337" width="50" height="30" as="geometry" />
        </mxCell>
        <mxCell id="jll_CH9f2McwU1DsK0mr-417" style="edgeStyle=orthogonalEdgeStyle;rounded=0;orthogonalLoop=1;jettySize=auto;html=1;endArrow=none;startFill=0;" edge="1" parent="1">
          <mxGeometry relative="1" as="geometry">
            <mxPoint x="-1860" y="-70.12" as="sourcePoint" />
            <mxPoint x="-1860" y="-0.370000000000001" as="targetPoint" />
          </mxGeometry>
        </mxCell>
        <mxCell id="jll_CH9f2McwU1DsK0mr-415" value="tiene" style="rhombus;whiteSpace=wrap;html=1;" vertex="1" parent="1">
          <mxGeometry x="-1900" y="-150" width="80" height="80" as="geometry" />
        </mxCell>
        <mxCell id="jll_CH9f2McwU1DsK0mr-420" value="(1,1)" style="text;html=1;align=center;verticalAlign=middle;resizable=0;points=[];autosize=1;strokeColor=none;fillColor=none;" vertex="1" parent="1">
          <mxGeometry x="-1920" y="-220.00000000000003" width="60" height="30" as="geometry" />
        </mxCell>
        <mxCell id="jll_CH9f2McwU1DsK0mr-421" value="(0,n)" style="text;html=1;align=center;verticalAlign=middle;resizable=0;points=[];autosize=1;strokeColor=none;fillColor=none;" vertex="1" parent="1">
          <mxGeometry x="-1921" y="-30.00000000000003" width="60" height="30" as="geometry" />
        </mxCell>
        <mxCell id="jll_CH9f2McwU1DsK0mr-427" value="" style="group" vertex="1" connectable="0" parent="1">
          <mxGeometry x="-1825" y="-28.288475772933715" width="8" height="28" as="geometry" />
        </mxCell>
        <mxCell id="jll_CH9f2McwU1DsK0mr-428" value="" style="ellipse;whiteSpace=wrap;html=1;aspect=fixed;fillColor=light-dark(#FFFFFF,#FFFFFF);" vertex="1" parent="jll_CH9f2McwU1DsK0mr-427">
          <mxGeometry width="8" height="8" as="geometry" />
        </mxCell>
        <mxCell id="jll_CH9f2McwU1DsK0mr-429" style="edgeStyle=orthogonalEdgeStyle;rounded=0;orthogonalLoop=1;jettySize=auto;html=1;endArrow=none;startFill=0;" edge="1" parent="jll_CH9f2McwU1DsK0mr-427">
          <mxGeometry relative="1" as="geometry">
            <mxPoint x="4" y="28" as="targetPoint" />
            <mxPoint x="4" y="8" as="sourcePoint" />
          </mxGeometry>
        </mxCell>
        <mxCell id="jll_CH9f2McwU1DsK0mr-430" value="&lt;font style=&quot;font-size: 8px;&quot;&gt;nombre&lt;/font&gt;" style="text;html=1;align=center;verticalAlign=middle;resizable=0;points=[];autosize=1;strokeColor=none;fillColor=none;rotation=-60;" vertex="1" parent="1">
          <mxGeometry x="-1843" y="-64.99847577293369" width="50" height="30" as="geometry" />
        </mxCell>
        <mxCell id="jll_CH9f2McwU1DsK0mr-431" value="" style="group" vertex="1" connectable="0" parent="1">
          <mxGeometry x="-1804.5" y="-28.288475772933715" width="8" height="28" as="geometry" />
        </mxCell>
        <mxCell id="jll_CH9f2McwU1DsK0mr-432" value="" style="ellipse;whiteSpace=wrap;html=1;aspect=fixed;fillColor=light-dark(#FFFFFF,transparent);" vertex="1" parent="jll_CH9f2McwU1DsK0mr-431">
          <mxGeometry width="8" height="8" as="geometry" />
        </mxCell>
        <mxCell id="jll_CH9f2McwU1DsK0mr-433" style="edgeStyle=orthogonalEdgeStyle;rounded=0;orthogonalLoop=1;jettySize=auto;html=1;endArrow=none;startFill=0;" edge="1" parent="jll_CH9f2McwU1DsK0mr-431">
          <mxGeometry relative="1" as="geometry">
            <mxPoint x="4" y="28" as="targetPoint" />
            <mxPoint x="4" y="8" as="sourcePoint" />
          </mxGeometry>
        </mxCell>
        <mxCell id="jll_CH9f2McwU1DsK0mr-438" value="&lt;font style=&quot;font-size: 8px;&quot;&gt;descripcion&lt;/font&gt;" style="text;html=1;align=center;verticalAlign=middle;resizable=0;points=[];autosize=1;strokeColor=none;fillColor=none;rotation=-60;" vertex="1" parent="1">
          <mxGeometry x="-1831" y="-74.9984757729337" width="80" height="30" as="geometry" />
        </mxCell>
        <mxCell id="jll_CH9f2McwU1DsK0mr-443" value="" style="group" vertex="1" connectable="0" parent="1">
          <mxGeometry x="-1424" y="-28.248475772933737" width="8" height="28" as="geometry" />
        </mxCell>
        <mxCell id="jll_CH9f2McwU1DsK0mr-444" value="" style="ellipse;whiteSpace=wrap;html=1;aspect=fixed;fillColor=light-dark(#FFFFFF,transparent);" vertex="1" parent="jll_CH9f2McwU1DsK0mr-443">
          <mxGeometry width="8" height="8" as="geometry" />
        </mxCell>
        <mxCell id="jll_CH9f2McwU1DsK0mr-445" style="edgeStyle=orthogonalEdgeStyle;rounded=0;orthogonalLoop=1;jettySize=auto;html=1;endArrow=none;startFill=0;" edge="1" parent="jll_CH9f2McwU1DsK0mr-443">
          <mxGeometry relative="1" as="geometry">
            <mxPoint x="4" y="28" as="targetPoint" />
            <mxPoint x="4" y="8" as="sourcePoint" />
          </mxGeometry>
        </mxCell>
        <mxCell id="jll_CH9f2McwU1DsK0mr-446" value="" style="group" vertex="1" connectable="0" parent="1">
          <mxGeometry x="-1464" y="-27.998475772933737" width="8" height="28" as="geometry" />
        </mxCell>
        <mxCell id="jll_CH9f2McwU1DsK0mr-447" value="" style="ellipse;whiteSpace=wrap;html=1;aspect=fixed;fillColor=light-dark(#FFFFFF,#FFFFFF);" vertex="1" parent="jll_CH9f2McwU1DsK0mr-446">
          <mxGeometry width="8" height="8" as="geometry" />
        </mxCell>
        <mxCell id="jll_CH9f2McwU1DsK0mr-448" style="edgeStyle=orthogonalEdgeStyle;rounded=0;orthogonalLoop=1;jettySize=auto;html=1;endArrow=none;startFill=0;" edge="1" parent="jll_CH9f2McwU1DsK0mr-446">
          <mxGeometry relative="1" as="geometry">
            <mxPoint x="4" y="28" as="targetPoint" />
            <mxPoint x="4" y="8" as="sourcePoint" />
          </mxGeometry>
        </mxCell>
        <mxCell id="jll_CH9f2McwU1DsK0mr-449" value="&lt;font style=&quot;font-size: 8px;&quot;&gt;codigo&lt;/font&gt;" style="text;html=1;align=center;verticalAlign=middle;resizable=0;points=[];autosize=1;strokeColor=none;fillColor=none;rotation=-60;" vertex="1" parent="1">
          <mxGeometry x="-1481" y="-62.70847577293371" width="50" height="30" as="geometry" />
        </mxCell>
        <mxCell id="jll_CH9f2McwU1DsK0mr-450" value="" style="group" vertex="1" connectable="0" parent="1">
          <mxGeometry x="-1443.5" y="-27.998475772933737" width="8" height="28" as="geometry" />
        </mxCell>
        <mxCell id="jll_CH9f2McwU1DsK0mr-451" value="" style="ellipse;whiteSpace=wrap;html=1;aspect=fixed;fillColor=light-dark(#FFFFFF,transparent);" vertex="1" parent="jll_CH9f2McwU1DsK0mr-450">
          <mxGeometry width="8" height="8" as="geometry" />
        </mxCell>
        <mxCell id="jll_CH9f2McwU1DsK0mr-452" style="edgeStyle=orthogonalEdgeStyle;rounded=0;orthogonalLoop=1;jettySize=auto;html=1;endArrow=none;startFill=0;" edge="1" parent="jll_CH9f2McwU1DsK0mr-450">
          <mxGeometry relative="1" as="geometry">
            <mxPoint x="4" y="28" as="targetPoint" />
            <mxPoint x="4" y="8" as="sourcePoint" />
          </mxGeometry>
        </mxCell>
        <mxCell id="jll_CH9f2McwU1DsK0mr-453" value="&lt;font style=&quot;font-size: 8px;&quot;&gt;descripcion&lt;/font&gt;" style="text;html=1;align=center;verticalAlign=middle;resizable=0;points=[];autosize=1;strokeColor=none;fillColor=none;rotation=-60;" vertex="1" parent="1">
          <mxGeometry x="-1450" y="-75.70847577293371" width="80" height="30" as="geometry" />
        </mxCell>
        <mxCell id="jll_CH9f2McwU1DsK0mr-457" value="&lt;font style=&quot;font-size: 8px;&quot;&gt;nombre&lt;/font&gt;" style="text;html=1;align=center;verticalAlign=middle;resizable=0;points=[];autosize=1;strokeColor=none;fillColor=none;rotation=-60;" vertex="1" parent="1">
          <mxGeometry x="-1461" y="-64.70847577293372" width="50" height="30" as="geometry" />
        </mxCell>
        <mxCell id="jll_CH9f2McwU1DsK0mr-467" value="" style="endArrow=none;html=1;rounded=0;exitX=0.75;exitY=0;exitDx=0;exitDy=0;" edge="1" parent="1">
          <mxGeometry width="50" height="50" relative="1" as="geometry">
            <mxPoint x="-1070" y="-280.20000000000005" as="sourcePoint" />
            <mxPoint x="-1060" y="-300" as="targetPoint" />
          </mxGeometry>
        </mxCell>
        <mxCell id="jll_CH9f2McwU1DsK0mr-468" value="&lt;font style=&quot;font-size: 10px;&quot;&gt;dirección&lt;/font&gt;" style="ellipse;whiteSpace=wrap;html=1;" vertex="1" parent="1">
          <mxGeometry x="-1071" y="-320" width="76" height="24" as="geometry" />
        </mxCell>
        <mxCell id="jll_CH9f2McwU1DsK0mr-469" value="" style="endArrow=none;html=1;rounded=0;exitX=0.75;exitY=0;exitDx=0;exitDy=0;" edge="1" parent="1">
          <mxGeometry width="50" height="50" relative="1" as="geometry">
            <mxPoint x="-1040" y="-320" as="sourcePoint" />
            <mxPoint x="-1027" y="-343" as="targetPoint" />
          </mxGeometry>
        </mxCell>
        <mxCell id="jll_CH9f2McwU1DsK0mr-470" value="" style="endArrow=none;html=1;rounded=0;exitX=0.75;exitY=0;exitDx=0;exitDy=0;" edge="1" parent="1">
          <mxGeometry width="50" height="50" relative="1" as="geometry">
            <mxPoint x="-1010" y="-317" as="sourcePoint" />
            <mxPoint x="-1000" y="-330" as="targetPoint" />
          </mxGeometry>
        </mxCell>
        <mxCell id="jll_CH9f2McwU1DsK0mr-471" value="" style="endArrow=none;html=1;rounded=0;exitX=1;exitY=0.5;exitDx=0;exitDy=0;" edge="1" parent="1" source="jll_CH9f2McwU1DsK0mr-468">
          <mxGeometry width="50" height="50" relative="1" as="geometry">
            <mxPoint x="-995" y="-296" as="sourcePoint" />
            <mxPoint x="-980" y="-308" as="targetPoint" />
          </mxGeometry>
        </mxCell>
        <mxCell id="jll_CH9f2McwU1DsK0mr-472" value="" style="endArrow=none;html=1;rounded=0;entryX=1;entryY=1;entryDx=0;entryDy=0;" edge="1" parent="1" target="jll_CH9f2McwU1DsK0mr-468">
          <mxGeometry width="50" height="50" relative="1" as="geometry">
            <mxPoint x="-990" y="-290" as="sourcePoint" />
            <mxPoint x="-1000" y="-310" as="targetPoint" />
          </mxGeometry>
        </mxCell>
        <mxCell id="jll_CH9f2McwU1DsK0mr-473" value="" style="group" vertex="1" connectable="0" parent="1">
          <mxGeometry x="-1029" y="-349.99872981077806" width="8" height="28" as="geometry" />
        </mxCell>
        <mxCell id="jll_CH9f2McwU1DsK0mr-474" value="" style="ellipse;whiteSpace=wrap;html=1;aspect=fixed;" vertex="1" parent="jll_CH9f2McwU1DsK0mr-473">
          <mxGeometry width="8" height="8" as="geometry" />
        </mxCell>
        <mxCell id="jll_CH9f2McwU1DsK0mr-475" value="" style="group" vertex="1" connectable="0" parent="1">
          <mxGeometry x="-1002" y="-336.99872981077806" width="8" height="28" as="geometry" />
        </mxCell>
        <mxCell id="jll_CH9f2McwU1DsK0mr-476" value="" style="ellipse;whiteSpace=wrap;html=1;aspect=fixed;" vertex="1" parent="jll_CH9f2McwU1DsK0mr-475">
          <mxGeometry width="8" height="8" as="geometry" />
        </mxCell>
        <mxCell id="jll_CH9f2McwU1DsK0mr-477" value="" style="group" vertex="1" connectable="0" parent="1">
          <mxGeometry x="-981" y="-311.99872981077806" width="8" height="28" as="geometry" />
        </mxCell>
        <mxCell id="jll_CH9f2McwU1DsK0mr-478" value="" style="ellipse;whiteSpace=wrap;html=1;aspect=fixed;" vertex="1" parent="jll_CH9f2McwU1DsK0mr-477">
          <mxGeometry width="8" height="8" as="geometry" />
        </mxCell>
        <mxCell id="jll_CH9f2McwU1DsK0mr-479" value="" style="group" vertex="1" connectable="0" parent="1">
          <mxGeometry x="-992" y="-292.99872981077806" width="8" height="28" as="geometry" />
        </mxCell>
        <mxCell id="jll_CH9f2McwU1DsK0mr-480" value="" style="ellipse;whiteSpace=wrap;html=1;aspect=fixed;" vertex="1" parent="jll_CH9f2McwU1DsK0mr-479">
          <mxGeometry width="8" height="8" as="geometry" />
        </mxCell>
        <mxCell id="jll_CH9f2McwU1DsK0mr-481" value="&lt;font style=&quot;font-size: 8px;&quot;&gt;calle&lt;/font&gt;" style="text;html=1;align=center;verticalAlign=middle;resizable=0;points=[];autosize=1;strokeColor=none;fillColor=none;rotation=0;" vertex="1" parent="1">
          <mxGeometry x="-1031" y="-363.99872981077806" width="50" height="30" as="geometry" />
        </mxCell>
        <mxCell id="jll_CH9f2McwU1DsK0mr-482" value="&lt;font style=&quot;font-size: 8px;&quot;&gt;numero&lt;/font&gt;" style="text;html=1;align=center;verticalAlign=middle;resizable=0;points=[];autosize=1;strokeColor=none;fillColor=none;rotation=0;" vertex="1" parent="1">
          <mxGeometry x="-1002" y="-350.99872981077806" width="50" height="30" as="geometry" />
        </mxCell>
        <mxCell id="jll_CH9f2McwU1DsK0mr-483" value="&lt;font style=&quot;font-size: 8px;&quot;&gt;piso(0,1)&lt;/font&gt;" style="text;html=1;align=center;verticalAlign=middle;resizable=0;points=[];autosize=1;strokeColor=none;fillColor=none;rotation=0;" vertex="1" parent="1">
          <mxGeometry x="-983" y="-325.99872981077806" width="70" height="30" as="geometry" />
        </mxCell>
        <mxCell id="jll_CH9f2McwU1DsK0mr-484" value="&lt;font style=&quot;font-size: 8px;&quot;&gt;dpto(0,1)&lt;/font&gt;" style="text;html=1;align=center;verticalAlign=middle;resizable=0;points=[];autosize=1;strokeColor=none;fillColor=none;rotation=0;" vertex="1" parent="1">
          <mxGeometry x="-993" y="-306.1987298107781" width="70" height="30" as="geometry" />
        </mxCell>
        <mxCell id="jll_CH9f2McwU1DsK0mr-494" style="edgeStyle=orthogonalEdgeStyle;rounded=0;orthogonalLoop=1;jettySize=auto;html=1;entryX=0.5;entryY=0;entryDx=0;entryDy=0;endArrow=none;startFill=0;" edge="1" parent="1" source="jll_CH9f2McwU1DsK0mr-485" target="jll_CH9f2McwU1DsK0mr-493">
          <mxGeometry relative="1" as="geometry" />
        </mxCell>
        <mxCell id="jll_CH9f2McwU1DsK0mr-485" value="Participacion" style="rounded=0;whiteSpace=wrap;html=1;" vertex="1" parent="1">
          <mxGeometry x="-1600" y="-280" width="200" height="60" as="geometry" />
        </mxCell>
        <mxCell id="jll_CH9f2McwU1DsK0mr-488" style="edgeStyle=orthogonalEdgeStyle;rounded=0;orthogonalLoop=1;jettySize=auto;html=1;entryX=0;entryY=0.5;entryDx=0;entryDy=0;endArrow=none;startFill=0;" edge="1" parent="1" target="jll_CH9f2McwU1DsK0mr-198">
          <mxGeometry relative="1" as="geometry">
            <mxPoint x="-1280.0357142857147" y="-250.21428571428555" as="sourcePoint" />
            <Array as="points">
              <mxPoint x="-1259" y="-250" />
            </Array>
          </mxGeometry>
        </mxCell>
        <mxCell id="jll_CH9f2McwU1DsK0mr-489" style="edgeStyle=orthogonalEdgeStyle;rounded=0;orthogonalLoop=1;jettySize=auto;html=1;entryX=1;entryY=0.5;entryDx=0;entryDy=0;endArrow=none;startFill=0;" edge="1" parent="1" target="jll_CH9f2McwU1DsK0mr-485">
          <mxGeometry relative="1" as="geometry">
            <mxPoint x="-1359.9642857142858" y="-250.21428571428555" as="sourcePoint" />
            <Array as="points">
              <mxPoint x="-1380" y="-250" />
            </Array>
          </mxGeometry>
        </mxCell>
        <mxCell id="jll_CH9f2McwU1DsK0mr-490" style="edgeStyle=orthogonalEdgeStyle;rounded=0;orthogonalLoop=1;jettySize=auto;html=1;entryX=0;entryY=0.5;entryDx=0;entryDy=0;endArrow=none;startFill=0;" edge="1" parent="1" source="jll_CH9f2McwU1DsK0mr-492" target="jll_CH9f2McwU1DsK0mr-485">
          <mxGeometry relative="1" as="geometry">
            <mxPoint x="-1600" y="-249.75" as="targetPoint" />
          </mxGeometry>
        </mxCell>
        <mxCell id="jll_CH9f2McwU1DsK0mr-491" style="edgeStyle=orthogonalEdgeStyle;rounded=0;orthogonalLoop=1;jettySize=auto;html=1;endArrow=none;startFill=0;" edge="1" parent="1" source="jll_CH9f2McwU1DsK0mr-492">
          <mxGeometry relative="1" as="geometry">
            <mxPoint x="-1760" y="-250" as="targetPoint" />
          </mxGeometry>
        </mxCell>
        <mxCell id="jll_CH9f2McwU1DsK0mr-492" value="tiene" style="rhombus;whiteSpace=wrap;html=1;" vertex="1" parent="1">
          <mxGeometry x="-1720" y="-289.99999999999994" width="80" height="80" as="geometry" />
        </mxCell>
        <mxCell id="jll_CH9f2McwU1DsK0mr-495" style="edgeStyle=orthogonalEdgeStyle;rounded=0;orthogonalLoop=1;jettySize=auto;html=1;entryX=0.5;entryY=0;entryDx=0;entryDy=0;endArrow=none;startFill=0;exitX=0.5;exitY=1;exitDx=0;exitDy=0;" edge="1" parent="1" source="jll_CH9f2McwU1DsK0mr-493" target="jll_CH9f2McwU1DsK0mr-201">
          <mxGeometry relative="1" as="geometry">
            <mxPoint x="-1500" y="-68" as="sourcePoint" />
          </mxGeometry>
        </mxCell>
        <mxCell id="jll_CH9f2McwU1DsK0mr-493" value="tiene" style="rhombus;whiteSpace=wrap;html=1;" vertex="1" parent="1">
          <mxGeometry x="-1540" y="-154.99999999999994" width="80" height="80" as="geometry" />
        </mxCell>
        <mxCell id="jll_CH9f2McwU1DsK0mr-496" value="(0,n)" style="text;html=1;align=center;verticalAlign=middle;resizable=0;points=[];autosize=1;strokeColor=none;fillColor=none;" vertex="1" parent="1">
          <mxGeometry x="-1559" y="-29.00000000000003" width="60" height="30" as="geometry" />
        </mxCell>
        <mxCell id="jll_CH9f2McwU1DsK0mr-497" value="(1,1)" style="text;html=1;align=center;verticalAlign=middle;resizable=0;points=[];autosize=1;strokeColor=none;fillColor=none;" vertex="1" parent="1">
          <mxGeometry x="-1559" y="-220.00000000000003" width="60" height="30" as="geometry" />
        </mxCell>
        <mxCell id="jll_CH9f2McwU1DsK0mr-498" value="(0,n)" style="text;html=1;align=center;verticalAlign=middle;resizable=0;points=[];autosize=1;strokeColor=none;fillColor=none;" vertex="1" parent="1">
          <mxGeometry x="-1293" y="-281" width="60" height="30" as="geometry" />
        </mxCell>
        <mxCell id="jll_CH9f2McwU1DsK0mr-499" value="(1,1)" style="text;html=1;align=center;verticalAlign=middle;resizable=0;points=[];autosize=1;strokeColor=none;fillColor=none;" vertex="1" parent="1">
          <mxGeometry x="-1408" y="-281" width="60" height="30" as="geometry" />
        </mxCell>
        <mxCell id="jll_CH9f2McwU1DsK0mr-500" value="(1,1)" style="text;html=1;align=center;verticalAlign=middle;resizable=0;points=[];autosize=1;strokeColor=none;fillColor=none;" vertex="1" parent="1">
          <mxGeometry x="-1655" y="-287.0400000000001" width="60" height="30" as="geometry" />
        </mxCell>
      </root>
    </mxGraphModel>
  </diagram>
</mxfile>
